<?xml version="1.0" encoding="UTF-8" standalone="no"?>
<svg version="1.1" id="Layer_1" xmlns="http://www.w3.org/2000/svg" xmlns:xlink="http://www.w3.org/1999/xlink" x="0px" y="0px"
	 width="1280px" height="800px" viewBox="0 0 1280 800" enable-background="new 0 0 1280 800" xml:space="preserve">
<g>
	<linearGradient id="SVGID_2_" gradientUnits="userSpaceOnUse" x1="284.166" y1="397" x2="508.5972" y2="397">
		<stop  offset="0.4587" style="stop-color:#FF7C00"/>
		<stop  offset="0.8462" style="stop-color:#FFA700"/>
		<stop  offset="1" style="stop-color:#FFB900"/>
	</linearGradient>
	<path fill="url(#SVGID_2_)" d="M420.74,497.502c-0.549,1.26-2.029,2.498-3.301,2.498H285.679c-1.272,0-1.855-1.238-1.306-2.498
		l87.644-200.961c0.55-1.261,2.069-2.541,3.342-2.541h131.761c1.271,0,1.813,1.28,1.265,2.541L420.74,497.502z"/>
	<path fill="#FFC200" d="M467.27,497.502c-0.549,1.26-2.027,2.498-3.301,2.498h-164.93l89.68-206h123.637l30.297,30.627
		L467.27,497.502z"/>
	<g>
		<defs>
			<path id="SVGID_62_" d="M467.27,497.502c-0.549,1.26-2.027,2.498-3.301,2.498h-164.93l89.68-206h123.637l30.297,30.627
				L467.27,497.502z"/>
		</defs>
		<clipPath id="SVGID_4_">
			<use xlink:href="#SVGID_62_"  overflow="visible"/>
		</clipPath>
		<path clip-path="url(#SVGID_4_)" fill="#FFFFFF" d="M508.282,362.651c-0.749,1.648-2.692,3.349-4.341,3.349H394.276
			c-1.648,0-2.378-1.7-1.63-3.349l3.98-8.72c0.75-1.649,2.692-2.932,4.34-2.932h109.666c1.649,0,2.378,1.282,1.629,2.932
			L508.282,362.651z"/>
		<path clip-path="url(#SVGID_4_)" fill="#FFFFFF" d="M469.327,393.585c-0.749,1.648-2.691,3.415-4.341,3.415H355.322
			c-1.648,0-2.379-1.767-1.631-3.415l3.981-8.185c0.748-1.65,2.691-2.4,4.34-2.4h109.665c1.648,0,2.379,0.75,1.631,2.4
			L469.327,393.585z"/>
		<path clip-path="url(#SVGID_4_)" fill="#FFFFFF" d="M430.372,424.287c-0.748,1.649-2.69,3.713-4.34,3.713H316.367
			c-1.648,0-2.379-2.063-1.631-3.713l3.981-8.035c0.749-1.648,2.692-2.252,4.341-2.252h109.664c1.648,0,2.379,0.604,1.63,2.252
			L430.372,424.287z"/>
		<path clip-path="url(#SVGID_4_)" fill="#FFFFFF" d="M391.418,454.223c-0.749,1.646-2.691,2.777-4.34,2.777H277.412
			c-1.648,0-2.379-1.131-1.63-2.777l3.98-9.005c0.75-1.648,2.692-3.218,4.341-3.218h109.665c1.648,0,2.379,1.569,1.63,3.218
			L391.418,454.223z"/>
		<path clip-path="url(#SVGID_4_)" fill="#FFFFFF" d="M429.195,454.223c-0.749,1.646-2.691,2.777-4.34,2.777h-18.908
			c-1.648,0-2.378-1.131-1.63-2.777l3.98-9.005c0.749-1.648,2.691-3.218,4.341-3.218h18.908c1.647,0,2.378,1.569,1.629,3.218
			L429.195,454.223z"/>
	</g>
	<g>
		<defs>
			<polygon id="SVGID_64_" points="299.039,500 131.805,500 218.382,324.834 375.418,324.891 			"/>
		</defs>
		<clipPath id="SVGID_5_">
			<use xlink:href="#SVGID_64_"  overflow="visible"/>
		</clipPath>
		<linearGradient id="SVGID_6_" gradientUnits="userSpaceOnUse" x1="163.3853" y1="492.5" x2="330.1201" y2="492.5">
			<stop  offset="0.3963" style="stop-color:#FF7C00"/>
			<stop  offset="0.672" style="stop-color:#FF9500"/>
			<stop  offset="1" style="stop-color:#FFB900"/>
		</linearGradient>
		<path clip-path="url(#SVGID_5_)" fill="url(#SVGID_6_)" d="M325.846,496.913c-0.749,1.649-2.693,3.087-4.341,3.087H165.309
			c-1.647,0-2.378-1.438-1.63-3.087l3.98-8.85c0.749-1.649,2.692-3.063,4.341-3.063h156.196c1.648,0,2.378,1.414,1.63,3.063
			L325.846,496.913z"/>
		<linearGradient id="SVGID_7_" gradientUnits="userSpaceOnUse" x1="270.2153" y1="421" x2="390.4204" y2="421">
			<stop  offset="0.2449" style="stop-color:#FF7C00"/>
			<stop  offset="0.4192" style="stop-color:#FF8300"/>
			<stop  offset="0.6699" style="stop-color:#FF9600"/>
			<stop  offset="0.9656" style="stop-color:#FFB500"/>
			<stop  offset="1" style="stop-color:#FFB900"/>
		</linearGradient>
		<path clip-path="url(#SVGID_5_)" fill="url(#SVGID_7_)" d="M386.146,424.287c-0.749,1.649-2.692,3.713-4.341,3.713H272.141
			c-1.649,0-2.38-2.063-1.631-3.713l3.981-8.035c0.748-1.648,2.691-2.252,4.34-2.252h109.664c1.65,0,2.38,0.604,1.631,2.252
			L386.146,424.287z"/>
		<linearGradient id="SVGID_9_" gradientUnits="userSpaceOnUse" x1="221.5225" y1="449.5" x2="341.7271" y2="449.5">
			<stop  offset="0" style="stop-color:#FF7C00"/>
			<stop  offset="0.4545" style="stop-color:#FF7C00"/>
			<stop  offset="1" style="stop-color:#FFB900"/>
		</linearGradient>
		<path clip-path="url(#SVGID_5_)" fill="url(#SVGID_9_)" d="M337.452,454.223c-0.749,1.646-2.691,2.777-4.34,2.777H223.447
			c-1.649,0-2.379-1.131-1.631-2.777l3.981-9.005c0.749-1.648,2.691-3.218,4.34-3.218h109.665c1.648,0,2.379,1.569,1.63,3.218
			L337.452,454.223z"/>
		<path clip-path="url(#SVGID_5_)" fill="#FFFFFF" d="M353.18,450.609c-0.748,1.649-2.691,2.391-4.34,2.391h-18.907
			c-1.649,0-2.38-0.741-1.63-2.391l3.98-8.199c0.748-1.646,2.691-2.41,4.34-2.41h18.907c1.649,0,2.379,0.764,1.631,2.41
			L353.18,450.609z"/>
	</g>
	<path fill="#FF7C00" d="M542.652,324.627L501.746,325c-1.272,0-1.854-0.271-1.306-1.529L512.355,294L542.652,324.627z"/>
</g>
<path fill="#052942" d="M599.235,387.254h-24.803v-93.219h55.091v20.213h-30.288v17.787h27.93v20.215h-27.93V387.254z"/>
<path fill="#052942" d="M706.45,387.254l-4.592-17.469h-30.287l-4.717,17.469h-27.674l30.413-93.604h33.603l30.799,93.604H706.45z
	 M696.629,349.127l-4.018-15.305c-0.934-3.4-2.07-7.799-3.411-13.199c-1.337-5.398-2.222-9.266-2.646-11.604
	c-0.382,2.168-1.137,5.736-2.263,10.711c-1.127,4.975-3.626,14.771-7.491,29.396H696.629z"/>
<path fill="#052942" d="M815.93,358.945c0,5.779-1.466,10.914-4.398,15.396c-2.933,4.486-7.163,7.973-12.688,10.459
	c-5.526,2.486-12.011,3.729-19.449,3.729c-6.207,0-11.412-0.432-15.62-1.307c-4.212-0.869-8.59-2.391-13.137-4.559v-22.443
	c4.803,2.467,9.798,4.391,14.983,5.77c5.186,1.383,9.947,2.072,14.283,2.072c3.741,0,6.482-0.648,8.228-1.945
	c1.741-1.295,2.612-2.965,2.612-5.004c0-1.275-0.35-2.391-1.053-3.348c-0.7-0.957-1.828-1.922-3.378-2.9
	c-1.553-0.979-5.686-2.977-12.402-5.996c-6.079-2.762-10.637-5.439-13.679-8.033c-3.038-2.592-5.291-5.566-6.758-8.928
	c-1.465-3.357-2.199-7.332-2.199-11.922c0-8.588,3.125-15.281,9.371-20.086c6.251-4.805,14.838-7.205,25.762-7.205
	c9.65,0,19.49,2.232,29.521,6.695l-7.713,19.447c-8.715-3.996-16.239-5.994-22.574-5.994c-3.273,0-5.654,0.574-7.141,1.721
	c-1.487,1.148-2.231,2.574-2.231,4.273c0,1.828,0.946,3.465,2.837,4.91c1.892,1.445,7.024,4.08,15.398,7.906
	c8.035,3.615,13.614,7.492,16.738,11.637C814.369,347.436,815.93,352.654,815.93,358.945z"/>
<path fill="#052942" d="M881.773,387.254h-25.188v-72.623h-22.763v-20.596h70.647v20.596h-22.697V387.254z"/>
<path fill="#052942" d="M585.273,499.637h-10.841v-93.223H626.4v9.629h-41.127v34.115h38.641v9.627h-38.641V499.637z"/>
<path fill="#052942" d="M729.008,452.898c0,14.92-3.774,26.652-11.318,35.199c-7.544,8.543-18.035,12.814-31.465,12.814
	c-13.734,0-24.326-4.197-31.787-12.592c-7.46-8.395-11.19-20.246-11.19-35.549c0-15.176,3.739-26.939,11.224-35.293
	c7.479-8.354,18.107-12.531,31.878-12.531c13.391,0,23.85,4.254,31.373,12.756C725.247,426.203,729.008,437.936,729.008,452.898z
	 M654.725,452.898c0,12.625,2.688,22.199,8.066,28.727c5.376,6.525,13.187,9.787,23.434,9.787c10.329,0,18.129-3.252,23.398-9.756
	c5.273-6.504,7.91-16.09,7.91-28.758c0-12.539-2.627-22.051-7.879-28.533c-5.248-6.482-13.015-9.725-23.306-9.725
	c-10.327,0-18.182,3.264-23.558,9.789C657.413,430.953,654.725,440.443,654.725,452.898z"/>
<path fill="#052942" d="M762.017,460.869v38.768h-10.84v-93.223h25.569c11.435,0,19.885,2.191,25.346,6.57
	c5.462,4.377,8.195,10.967,8.195,19.766c0,12.328-6.248,20.658-18.748,24.994l25.315,41.893h-12.815l-22.575-38.768H762.017z
	 M762.017,451.559h14.858c7.65,0,13.262-1.518,16.832-4.559c3.571-3.037,5.355-7.598,5.355-13.676
	c0-6.164-1.815-10.605-5.452-13.326c-3.633-2.721-9.47-4.082-17.501-4.082h-14.093V451.559z"/>
<path fill="#052942" d="M877.336,499.637L845.707,417h-0.509c0.593,6.547,0.894,14.324,0.894,23.338v59.299h-10.013v-93.223h16.324
	l29.521,76.9h0.512l29.778-76.9h16.196v93.223h-10.84v-60.064c0-6.885,0.296-14.367,0.894-22.443h-0.512l-31.882,82.508H877.336z"/>
<path fill="#052942" d="M1009.666,474.834c0,8.205-2.977,14.6-8.928,19.193c-5.952,4.59-14.028,6.885-24.23,6.885
	c-11.053,0-19.556-1.422-25.506-4.271v-10.457c3.825,1.615,7.992,2.891,12.497,3.824c4.506,0.938,8.97,1.404,13.39,1.404
	c7.226,0,12.668-1.369,16.325-4.111c3.655-2.742,5.483-6.559,5.483-11.447c0-3.23-0.649-5.875-1.942-7.939
	c-1.3-2.061-3.468-3.963-6.508-5.707c-3.037-1.742-7.658-3.719-13.867-5.93c-8.673-3.102-14.867-6.779-18.586-11.029
	c-3.72-4.252-5.579-9.797-5.579-16.643c0-7.184,2.699-12.902,8.098-17.152c5.395-4.25,12.541-6.377,21.424-6.377
	c9.269,0,17.789,1.701,25.569,5.102l-3.382,9.438c-7.693-3.23-15.174-4.848-22.442-4.848c-5.739,0-10.226,1.234-13.456,3.699
	c-3.229,2.465-4.842,5.889-4.842,10.268c0,3.23,0.594,5.875,1.783,7.938c1.188,2.062,3.199,3.953,6.027,5.674
	c2.825,1.723,7.15,3.625,12.975,5.705c9.777,3.488,16.504,7.229,20.181,11.225S1009.666,468.457,1009.666,474.834z"/>
</svg>